<svg width="214" height="115" viewBox="0 0 214 115" fill="none" xmlns="http://www.w3.org/2000/svg">
<rect width="214" height="115" rx="5" fill="#222222"/>
<rect x="6" y="5" width="34" height="105" rx="2" fill="#2B2B2B"/>
<rect x="10" y="8" width="19" height="5" rx="1" fill="#3A3A3A"/>
<rect x="10" y="100" width="19" height="5" rx="1" fill="#3A3A3A"/>
<rect x="10" y="21" width="19" height="2" rx="1" fill="#3A3A3A"/>
<rect x="10" y="94" width="19" height="2" rx="1" fill="#3A3A3A"/>
<rect x="10" y="33" width="19" height="2" rx="1" fill="#3A3A3A"/>
<rect x="10" y="45" width="19" height="2" rx="1" fill="#3A3A3A"/>
<rect x="10" y="24" width="19" height="2" rx="1" fill="#3A3A3A"/>
<rect x="10" y="97" width="19" height="2" rx="1" fill="#3A3A3A"/>
<rect x="10" y="36" width="19" height="2" rx="1" fill="#3A3A3A"/>
<rect x="10" y="48" width="19" height="2" rx="1" fill="#3A3A3A"/>
<rect x="10" y="27" width="19" height="2" rx="1" fill="#3A3A3A"/>
<rect x="10" y="39" width="19" height="2" rx="1" fill="#3A3A3A"/>
<rect x="10" y="51" width="19" height="2" rx="1" fill="#3A3A3A"/>
<rect x="45" y="5" width="164" height="11" rx="2" fill="#2B2B2B"/>
<rect x="45" y="20" width="164" height="90" rx="2" fill="#2B2B2B"/>
<rect x="50" y="23" width="19" height="5" rx="1" fill="#3A3A3A"/>
<rect x="50" y="8" width="19" height="5" rx="1" fill="#3A3A3A"/>
<rect x="50" y="35" width="100" height="5" rx="1" fill="#3A3A3A"/>
<rect x="50" y="56" width="100" height="5" rx="1" fill="#3A3A3A"/>
<rect x="50" y="77" width="100" height="5" rx="1" fill="#3A3A3A"/>
<rect x="50" y="41" width="114" height="5" rx="1" fill="#3A3A3A"/>
<rect x="50" y="62" width="114" height="5" rx="1" fill="#3A3A3A"/>
<rect x="50" y="83" width="114" height="5" rx="1" fill="#3A3A3A"/>
<rect x="50" y="47" width="114" height="5" rx="1" fill="#3A3A3A"/>
<rect x="50" y="68" width="114" height="5" rx="1" fill="#3A3A3A"/>
<rect x="50" y="89" width="114" height="5" rx="1" fill="#3A3A3A"/>
</svg>
