<svg width="216" height="115" viewBox="0 0 216 115" fill="none" xmlns="http://www.w3.org/2000/svg">
<rect x="1" width="214" height="115" rx="5" fill="white"/>
<mask id="mask0_3604_6963" style="mask-type:alpha" maskUnits="userSpaceOnUse" x="0" y="0" width="216" height="115">
<path d="M215.5 115L0.5 115L215.202 0.159439L215.5 115Z" fill="#F00C0C"/>
</mask>
<g mask="url(#mask0_3604_6963)">
<rect x="1" width="214" height="115" rx="5" fill="#222222"/>
<rect x="7" y="5" width="34" height="105" rx="2" fill="#2B2B2B"/>
<rect x="11" y="8" width="19" height="5" rx="1" fill="#3A3A3A"/>
<rect x="11" y="100" width="19" height="5" rx="1" fill="#3A3A3A"/>
<rect x="11" y="21" width="19" height="2" rx="1" fill="#3A3A3A"/>
<rect x="11" y="94" width="19" height="2" rx="1" fill="#3A3A3A"/>
<rect x="11" y="33" width="19" height="2" rx="1" fill="#3A3A3A"/>
<rect x="11" y="45" width="19" height="2" rx="1" fill="#3A3A3A"/>
<rect x="11" y="24" width="19" height="2" rx="1" fill="#3A3A3A"/>
<rect x="11" y="97" width="19" height="2" rx="1" fill="#3A3A3A"/>
<rect x="11" y="36" width="19" height="2" rx="1" fill="#3A3A3A"/>
<rect x="11" y="48" width="19" height="2" rx="1" fill="#3A3A3A"/>
<rect x="11" y="27" width="19" height="2" rx="1" fill="#3A3A3A"/>
<rect x="11" y="39" width="19" height="2" rx="1" fill="#3A3A3A"/>
<rect x="11" y="51" width="19" height="2" rx="1" fill="#3A3A3A"/>
<rect x="46" y="5" width="164" height="11" rx="2" fill="#2B2B2B"/>
<rect x="46" y="20" width="164" height="90" rx="2" fill="#2B2B2B"/>
<rect x="51" y="23" width="19" height="5" rx="1" fill="#3A3A3A"/>
<rect x="51" y="8" width="19" height="5" rx="1" fill="#3A3A3A"/>
<rect x="51" y="35" width="100" height="5" rx="1" fill="#3A3A3A"/>
<rect x="51" y="56" width="100" height="5" rx="1" fill="#3A3A3A"/>
<rect x="51" y="77" width="100" height="5" rx="1" fill="#3A3A3A"/>
<rect x="51" y="41" width="114" height="5" rx="1" fill="#3A3A3A"/>
<rect x="51" y="62" width="114" height="5" rx="1" fill="#3A3A3A"/>
<rect x="51" y="83" width="114" height="5" rx="1" fill="#3A3A3A"/>
<rect x="51" y="47" width="114" height="5" rx="1" fill="#3A3A3A"/>
<rect x="51" y="68" width="114" height="5" rx="1" fill="#3A3A3A"/>
<rect x="51" y="89" width="114" height="5" rx="1" fill="#3A3A3A"/>
</g>
<mask id="mask1_3604_6963" style="mask-type:alpha" maskUnits="userSpaceOnUse" x="0" y="0" width="215" height="115">
<path d="M0 0L214.5 2.80715e-08L0.297394 114.841L0 0Z" fill="black"/>
</mask>
<g mask="url(#mask1_3604_6963)">
<rect x="1" width="214" height="115" rx="5" fill="white"/>
<rect x="7" y="5" width="34" height="105" rx="2" fill="#F8F6F6"/>
<rect x="11" y="8" width="19" height="5" rx="1" fill="#E6E6E6"/>
<rect x="11" y="100" width="19" height="5" rx="1" fill="#E6E6E6"/>
<rect x="11" y="21" width="19" height="2" rx="1" fill="#E6E6E6"/>
<rect x="11" y="94" width="19" height="2" rx="1" fill="#E6E6E6"/>
<rect x="11" y="33" width="19" height="2" rx="1" fill="#E6E6E6"/>
<rect x="11" y="45" width="19" height="2" rx="1" fill="#E6E6E6"/>
<rect x="11" y="24" width="19" height="2" rx="1" fill="#E6E6E6"/>
<rect x="11" y="97" width="19" height="2" rx="1" fill="#E6E6E6"/>
<rect x="11" y="36" width="19" height="2" rx="1" fill="#E6E6E6"/>
<rect x="11" y="48" width="19" height="2" rx="1" fill="#E6E6E6"/>
<rect x="11" y="27" width="19" height="2" rx="1" fill="#E6E6E6"/>
<rect x="11" y="39" width="19" height="2" rx="1" fill="#E6E6E6"/>
<rect x="11" y="51" width="19" height="2" rx="1" fill="#E6E6E6"/>
<rect x="46" y="5" width="164" height="11" rx="2" fill="#F8F6F6"/>
<rect x="46" y="20" width="164" height="90" rx="2" fill="#F8F6F6"/>
<rect x="51" y="23" width="19" height="5" rx="1" fill="#E6E6E6"/>
<rect x="51" y="8" width="19" height="5" rx="1" fill="#E6E6E6"/>
<rect x="51" y="35" width="100" height="5" rx="1" fill="#E6E6E6"/>
<rect x="51" y="56" width="100" height="5" rx="1" fill="#E6E6E6"/>
<rect x="51" y="77" width="100" height="5" rx="1" fill="#E6E6E6"/>
<rect x="51" y="41" width="114" height="5" rx="1" fill="#E6E6E6"/>
<rect x="51" y="62" width="114" height="5" rx="1" fill="#E6E6E6"/>
<rect x="51" y="83" width="114" height="5" rx="1" fill="#E6E6E6"/>
<rect x="51" y="47" width="114" height="5" rx="1" fill="#E6E6E6"/>
<rect x="51" y="68" width="114" height="5" rx="1" fill="#E6E6E6"/>
<rect x="51" y="89" width="114" height="5" rx="1" fill="#E6E6E6"/>
</g>
</svg>
